# xmcd
#
# Track frame offsets:
#	150
#	10923
#	23457
#	34798
#	53598
#	67539
#	81160
#	94693
#	112861
#	127356
#	144873
#	158275
#	169865
#	187620
#	201563
#
# Disc length: 2879 seconds
#
# Revision: 0
# Processed by: cddbd v1.5.2PL0 Copyright (c) Steve Scherf et al.
# Submitted via: audiograbber 1.83.01
#
DISCID=ab0b3d0f
DTITLE=Alex Nikols - Listen To The Wind
DYEAR=2014
DGENRE=Pop
TTITLE0=Listen To The Wind
TTITLE1=I Walk The Line
TTITLE2=If I Could
TTITLE3=Whiskey In The Jar
TTITLE4=Wonderwall
TTITLE5=Just A Point On You
TTITLE6=The Way You Are Loving
TTITLE7=Losing My Religion
TTITLE8=True Love
TTITLE9=Take Me Home Country Roads
TTITLE10=Father And Son
TTITLE11=Lucky Boy
TTITLE12=Still Havent Found What I Am Looking For
TTITLE13=We Can Fly
TTITLE14=Blowing In The Wind
EXTD=
EXTT0=
EXTT1=
EXTT2=
EXTT3=
EXTT4=
EXTT5=
EXTT6=
EXTT7=
EXTT8=
EXTT9=
EXTT10=
EXTT11=
EXTT12=
EXTT13=
EXTT14=
PLAYORDER=
